<svg id="レイヤー_1" data-name="レイヤー 1" xmlns="http://www.w3.org/2000/svg" viewBox="0 0 166 46.838"><defs><style>.cls-1{fill:#fff;}</style></defs><title>logo</title><path class="cls-1" d="M14.824.388H10.87L0 26.893h5.507l2.892-7.2h9.247l2.9 7.2h5.434zm-4.447 14.506l2.54-7.06h.07l2.54 7.06h-5.15zM74.966.388h-3.954l-10.87 26.505h5.507l2.893-7.2h9.247l2.894 7.2h5.436zm-4.448 14.506l2.542-7.06h.07l2.54 7.06H70.52zM154.843.388h-3.953l-10.868 26.505h5.5l2.9-7.2h9.248l2.89 7.2H166zM150.4 14.894l2.542-7.06h.07l2.54 7.06H150.4zM50.26 18H39.953v-4.8H56.46a5.054 5.054 0 0 1 .012.526 13.554 13.554 0 1 1-27.106 0A13.64 13.64 0 0 1 42.92 0a12.857 12.857 0 0 1 12.423 8.47H49.66l-.107-.192A8.34 8.34 0 0 0 42.87 4.87a8.685 8.685 0 0 0-8.486 8.872 8.684 8.684 0 0 0 8.486 8.873 8.576 8.576 0 0 0 7.523-4.592zM104.478.388H89.654v4.87h4.76v21.635h5.188V5.258h4.876V.388zM128.72.388v10.517h-9.352V.388h-5.014v26.505h5.014V15.776h9.35v11.117h5.013V.388h-5.01zM59.36 37.278a4.183 4.183 0 0 0-2.473-.54H55.3l-.107.045-.045.11v9.628l.052.11.1.043h1.072l.11-.045.043-.107v-4.06h.627a3.616 3.616 0 0 0 2.383-.675 2.856 2.856 0 0 0 .976-2.187 2.8 2.8 0 0 0-1.15-2.32zm-2.833.763h.245a4.03 4.03 0 0 1 1.66.24 1.26 1.26 0 0 1 .7 1.294 1.372 1.372 0 0 1-.584 1.26 2.7 2.7 0 0 1-1.46.325h-.56v-3.12zM70.638 36.28l-.14.09-4.443 10.09.01.14.128.07h1.176l.138-.094 1.124-2.64h3.908l1.1 2.638.14.094h1.187l.127-.07.013-.143-4.33-10.09zm-.028 3.046l1.382 3.313h-2.8zM85.16 42.314a2.652 2.652 0 0 0 2.3-2.765 2.444 2.444 0 0 0-1.15-2.274 4.975 4.975 0 0 0-2.527-.536h-1.39l-.107.044-.045.11v9.628l.046.11.106.043h1.075l.106-.045.045-.107v-4.077h.034l2.867 4.162.126.065h1.314l.135-.082-.01-.158zm-1.543-4.273h.167a3.7 3.7 0 0 1 1.64.258 1.607 1.607 0 0 1-.024 2.616 3.526 3.526 0 0 1-1.6.283h-.18V38.04zM96.793 36.74H95.72l-.108.043-.046.108v9.63l.046.11.108.043h1.073l.108-.045.046-.107v-9.63l-.045-.107-.107-.044zM110.117 41.88a5.45 5.45 0 0 0-1.67-1.016l-.64-.28a4.48 4.48 0 0 1-.964-.533 1.045 1.045 0 0 1-.453-.834 1.375 1.375 0 0 1 1.445-1.34 1.61 1.61 0 0 1 1.528.97l.1.07.12-.02.855-.548.052-.2a2.915 2.915 0 0 0-2.624-1.574 3.033 3.033 0 0 0-1.983.7 2.457 2.457 0 0 0-.865 1.9 2.233 2.233 0 0 0 .672 1.667 5.13 5.13 0 0 0 1.512.938l.588.254a5.075 5.075 0 0 1 1.186.667 1.374 1.374 0 0 1 .5 1.11 1.788 1.788 0 0 1-1.83 1.725 1.832 1.832 0 0 1-1.776-1.656l-.066-.108-.124-.02-1.048.294-.11.18a3.13 3.13 0 0 0 3.153 2.61 3.206 3.206 0 0 0 2.247-.9 3.088 3.088 0 0 0 .932-2.23 2.446 2.446 0 0 0-.737-1.825z"/></svg>