<svg id="navi-category-01" xmlns="http://www.w3.org/2000/svg" viewBox="0 0 70 70"><defs><style>.cls-1{fill:none;stroke:#fff;stroke-linecap:round;stroke-linejoin:round;}</style></defs><title>navi-category</title><path class="cls-1" d="M34.8 49.464l6.112 2.53 2.53 6.113-2.53 6.11L34.8 66.75l-6.112-2.532-2.53-6.11 2.53-6.113 6.112-2.53z"/><path class="cls-1" d="M34.8 53.297l3.4 1.41 1.41 3.4-1.41 3.4-3.4 1.41-3.4-1.41-1.41-3.4 1.41-3.4 3.4-1.41zM40.912 51.995l-2.71 2.71M34.8 49.464v3.833M28.688 51.995l2.71 2.71M26.157 58.107h3.833M28.688 64.218l2.71-2.71M34.8 66.75v-3.833M40.912 64.218l-2.71-2.71M43.443 58.107H39.61M36.545 42.03a3.66 3.66 0 1 1-3.947.294"/><path class="cls-1" d="M33.044 40.08v4.157h3.51V40.08h-3.51z"/><path class="cls-1" d="M36.763 41.612C43.6 39.736 52.6 29.726 52.6 20.375A17.576 17.576 0 0 0 34.827 2.5h-.054A17.576 17.576 0 0 0 17 20.375c0 9.352 9 19.792 15.837 21.668"/></svg>