<svg id="navi-category-01" xmlns="http://www.w3.org/2000/svg" viewBox="0 0 70 70"><defs><style>.cls-1{fill:none;stroke:#fff;stroke-miterlimit:10;}</style></defs><title>navi-category</title><path class="cls-1" d="M24.992 36.217h20.016l5.67 5.67v8.016l-5.67 5.67H24.992l-5.67-5.67v-8.017l5.67-5.67z"/><path class="cls-1" d="M26.648 51.5L23.5 48.032V43.33l3.148-3.83h16.705l3.147 3.83v4.702L43.352 51.5H26.648z"/><circle class="cls-1" cx="15.759" cy="45.741" r="3.241"/><circle class="cls-1" cx="9.759" cy="42.741" r="3.241"/><circle class="cls-1" cx="54.241" cy="45.741" r="3.241"/><circle class="cls-1" cx="60.241" cy="42.741" r="3.241"/><path class="cls-1" d="M7 41c-3.168-2.61-5-5.7-5-9 0-9.39 14.775-17 33-17s33 7.61 33 17c0 3.305-1.83 6.39-5 9"/></svg>