<svg id="navi-category-01" xmlns="http://www.w3.org/2000/svg" viewBox="0 0 70 70"><defs><style>.cls-1,.cls-2{fill:none;stroke:#fff;stroke-linecap:round;}.cls-1{stroke-miterlimit:10;}.cls-2{stroke-linejoin:round;}</style></defs><title>navi-category</title><path class="cls-1" d="M57.5 32.5h.06a41.488 41.488 0 0 0-3-14.366M56.3 44.587c.223-.885.422-1.785.59-2.7M54.54 49.915c.108-.258.215-.515.317-.777M43.456 63.533A23.522 23.522 0 0 0 49.8 58M22.2 60.953a19.906 19.906 0 0 0 7.733 4.39M12.3 41.882a39.673 39.673 0 0 0 2.344 8.032M14.62 18.135a41.49 41.49 0 0 0-3 14.366M19.036 10.432a29.973 29.973 0 0 0-1.777 2.543M51.922 12.976C47.706 6.253 41.507 2 34.592 2a17.357 17.357 0 0 0-8.124 2.06"/><circle class="cls-2" cx="20.693" cy="58.924" r="1.898" transform="rotate(-45 20.692 58.924)"/><circle class="cls-2" cx="55.693" cy="46.72" r="1.898"/><ellipse class="cls-2" cx="11.795" cy="37.04" rx="2.791" ry="4.221" transform="rotate(-2.872 11.805 37.04)"/><ellipse class="cls-2" cx="57.386" cy="37.04" rx="4.221" ry="2.791" transform="rotate(-87.128 57.386 37.04)"/><ellipse class="cls-2" cx="16.8" cy="53.908" rx="2.791" ry="4.221" transform="rotate(-30 16.8 53.907)"/><ellipse class="cls-2" cx="52.382" cy="53.908" rx="4.221" ry="2.791" transform="rotate(-60 52.382 53.907)"/><circle class="cls-2" cx="24.002" cy="5.411" r="2.411"/><circle class="cls-2" cx="20.243" cy="8.474" r="1.652"/><circle class="cls-2" cx="16.002" cy="15.411" r="2.411"/><circle class="cls-2" cx="53.18" cy="15.411" r="2.411"/><circle class="cls-2" cx="41.489" cy="64.72" r="1.898"/><ellipse class="cls-2" cx="34.591" cy="65.613" rx="4.221" ry="2.791"/></svg>