<svg id="navi-category-01" xmlns="http://www.w3.org/2000/svg" viewBox="0 0 70 70"><defs><style>.cls-1{fill:none;stroke:#fff;stroke-miterlimit:10;}</style></defs><title>navi-category</title><path class="cls-1" d="M52.676 39.38a3.145 3.145 0 0 0-3.66-2.53c-.03.004-.056.017-.085.023-.006-.06 0-.117-.013-.176a3.145 3.145 0 0 0-3.094-2.585 3.2 3.2 0 0 0-.567.05c-.03.006-.055.02-.084.025-.007-.06 0-.117-.014-.177a3.146 3.146 0 0 0-3.094-2.583 3.18 3.18 0 0 0-.566.05c-.03.006-.056.02-.085.026-.007-.06 0-.118-.015-.176A3.144 3.144 0 0 0 38.3 28.74a3.19 3.19 0 0 0-.567.052c-.03.005-.056.018-.085.025-.007-.06 0-.117-.014-.177a3.144 3.144 0 0 0-3.093-2.584 3.19 3.19 0 0 0-.566.05 3.148 3.148 0 0 0 .56 6.246 3.185 3.185 0 0 0 .568-.05c.03-.006.055-.02.085-.025.007.06 0 .117.014.176a3.145 3.145 0 0 0 3.1 2.585 3.2 3.2 0 0 0 .567-.05c.03-.006.055-.02.084-.025.008.06 0 .117.015.177a3.146 3.146 0 0 0 3.66 2.532c.03-.005.056-.018.085-.024.007.06 0 .118.015.177a3.144 3.144 0 0 0 3.66 2.532c.03-.005.055-.018.084-.025.006.06 0 .118.014.177a3.147 3.147 0 1 0 6.192-1.13z"/><path class="cls-1" d="M36.4 26.4a3.51 3.51 0 0 0 .143-.374 21.136 21.136 0 0 0 1.014-9.71c-.725-5.362-.58-11.594 1.884-12.173s3.334.725 4.494 2.174 4.493 5.362 8.405 6.52 6.81 2.03 8.404 6.812 2.466 6.084 4.056 6.95 1.594 2.9-.29 5.362-3.478 7.826-5.942 7.68c-1.634-.1-3.778-1.02-5.755-1.125q-.212-.01-.42-.01"/><path class="cls-1" d="M40.32 29.216a8.713 8.713 0 0 0 .73-1.582 25.9 25.9 0 0 0 1.25-11.96c-.1-.736-.174-1.426-.227-2.07a.867.867 0 0 1 1.447-.714 19.456 19.456 0 0 0 7.464 4.532c3.718 1.1 4.442 1.383 5.227 3.738 1.193 3.576 2.224 6 3.824 7.73a.862.862 0 0 1 .06 1.055c-.585.9-1.1 1.878-1.6 2.83-.268.512-.645 1.23-.987 1.808l-.317-.083a18.664 18.664 0 0 0-4.728-.772 8.98 8.98 0 0 0-4.48 1.12M44.226 39.546q-.063.195-.117.393-.076.27-.138.545c-.7 3.143-.117 6.63.267 8.913l.052.31c.334 2.01 1.03 4.994 1.595 7.132a.863.863 0 0 1-.712 1.076l-.66.1a32.084 32.084 0 0 1-4.863.473 17.108 17.108 0 0 1-8.72-2.424l-2.8-1.584a.87.87 0 0 0-1.086.19l-2.1 2.433a11.854 11.854 0 0 1-6.784 3.3l-1 .12a41.748 41.748 0 0 1-4.725.4c-3.077 0-3.426-.573-3.582-3.025a32.525 32.525 0 0 1 6.562-22.16l.463-.605a12.98 12.98 0 0 0 5.477.97q.362 0 .755-.012.458-.013.89-.012c1.176 0 2.228.06 3.245.12.893.05 1.736.1 2.565.1a10.16 10.16 0 0 0 6.662-2.05l.42-.34"/><path class="cls-1" d="M48.458 42.845q-.016.226-.023.456a29.605 29.605 0 0 0 .573 5.62 84.537 84.537 0 0 0 2.03 8.55c.434 1.3 1.3 4.637-3.044 4.927s-10.724 2.753-19.42-2.174a16.42 16.42 0 0 1-9.854 4.927c-6.232.725-14.057 2.174-14.637-6.956a37.282 37.282 0 0 1 7.536-25.36s-1.45-6.088 1.448-6.957 3.26 1.45 3.478 2.68.145 2.9 5.434 2.754c4.546-.124 7.432.662 9.534-.22a4.05 4.05 0 0 0 .643-.338"/></svg>