<svg id="navi-category-01" xmlns="http://www.w3.org/2000/svg" viewBox="0 0 70 70"><defs><style>.cls-1{fill:none;stroke:#fff;stroke-linecap:round;stroke-linejoin:round;}</style></defs><title>navi-category</title><path class="cls-1" d="M37.512 6.917l-.112-.01M57.27 18.535a27.013 27.013 0 0 0-16.87-11.2M61.77 30.33a26.806 26.806 0 0 0-2.853-9.06M60.888 41.467a26.825 26.825 0 0 0 .738-3.208M58.917 46.323c.04-.074.076-.148.114-.222M47.328 57.815a27.116 27.116 0 0 0 9.944-8.758M12.73 49.057a27.114 27.114 0 0 0 10.118 8.848M10.97 46.1c.037.074.074.15.113.222M8.374 38.258a26.825 26.825 0 0 0 .738 3.208M11.083 21.27a26.806 26.806 0 0 0-2.854 9.06M29.6 7.336a27.013 27.013 0 0 0-16.876 11.2M32.6 6.908l-.115.01"/><circle class="cls-1" cx="40.602" cy="61.194" r="2.398"/><circle class="cls-1" cx="29.398" cy="61.194" r="2.398"/><circle class="cls-1" cx="45.102" cy="58.694" r="1.898"/><circle class="cls-1" cx="25.102" cy="58.694" r="1.898"/><circle class="cls-1" cx="62.102" cy="31.898" r="1.102"/><circle class="cls-1" cx="58.102" cy="47.694" r="1.102"/><circle class="cls-1" cx="11.898" cy="47.694" r="1.102"/><circle class="cls-1" cx="11.898" cy="19.898" r="1.102"/><circle class="cls-1" cx="58.102" cy="19.898" r="1.102"/><circle class="cls-1" cx="39" cy="6.796" r="1"/><circle class="cls-1" cx="31" cy="6.796" r="1"/><circle class="cls-1" cx="35" cy="6.898" r="1.898"/><circle class="cls-1" cx="35" cy="61.796" r="3"/><circle class="cls-1" cx="62" cy="35.796" r="2"/><circle class="cls-1" cx="7.898" cy="31.898" r="1.102"/><circle class="cls-1" cx="8" cy="35.796" r="2"/><circle class="cls-1" cx="10" cy="43.796" r="2"/><circle class="cls-1" cx="60" cy="43.796" r="2"/></svg>