<svg id="navi-category-01" xmlns="http://www.w3.org/2000/svg" viewBox="0 0 70 70"><defs><style>.cls-1{fill:none;stroke:#fff;stroke-linecap:round;stroke-linejoin:round;}</style></defs><title>navi-category</title><circle class="cls-1" cx="49.025" cy="22.96" r="2.876"/><circle class="cls-1" cx="49.025" cy="31.036" r="4.444"/><ellipse class="cls-1" cx="49.025" cy="46.972" rx="9.158" ry="11.343"/><path class="cls-1" d="M48.107 14.694a6.347 6.347 0 0 0 0-12.694c-3.505 0-6.76 3.922-9.443 6.347s-4.128 2.725-8.05 2.725M51 17.5h-4"/><circle class="cls-1" cx="21.41" cy="32.645" r="2.876"/><circle class="cls-1" cx="21.41" cy="40.721" r="4.444"/><ellipse class="cls-1" cx="21.41" cy="56.657" rx="9.158" ry="11.343"/><path class="cls-1" d="M20.493 24.38a6.347 6.347 0 0 0 0-12.695c-3.505 0-6.76 3.922-9.443 6.347S6.922 20.757 3 20.757M23 27.5h-4"/></svg>