<svg id="navi-category-01" xmlns="http://www.w3.org/2000/svg" viewBox="0 0 70 70"><defs><style>.cls-1,.cls-2{fill:none;stroke:#fff;}.cls-1{stroke-miterlimit:10;}.cls-2{stroke-linecap:round;stroke-linejoin:round;}</style></defs><title>navi-category</title><path class="cls-1" d="M35.245 4C19.67 4 7 16.55 7 33.96c0 10.4 4.562 23.182 11.094 31.09a1.614 1.614 0 1 0 2.49-2.056c-6.1-7.38-8.742-16.9-8.742-26.613 0-10.087 9.61-22.7 23.4-22.7s23.4 12.61 23.4 22.7c0 9.715-2.644 19.233-8.74 26.614A1.614 1.614 0 1 0 52.4 65.05c6.532-7.908 11.094-20.693 11.094-31.09C63.49 16.55 50.82 4 35.244 4z"/><circle class="cls-2" cx="35.245" cy="8.586" r="2.642"/><circle class="cls-2" cx="25.56" cy="10.347" r="2.201"/><circle class="cls-2" cx="44.931" cy="10.347" r="2.201"/><circle class="cls-2" cx="52.856" cy="15.63" r="1.761"/><circle class="cls-2" cx="17.635" cy="15.63" r="1.761"/></svg>